<mxfile host="app.diagrams.net" modified="2022-10-28T05:48:35.956Z" agent="5.0 (Windows NT 10.0; Win64; x64) AppleWebKit/537.36 (KHTML, like Gecko) Chrome/107.0.0.0 Safari/537.36" etag="75ODLsv49_j6IzZN4Ze6" version="20.5.1" type="github">
  <diagram id="ixI0M8AzQS7aJe8lSuD0" name="Page-1">
    <mxGraphModel dx="1597" dy="829" grid="1" gridSize="10" guides="1" tooltips="1" connect="1" arrows="1" fold="1" page="1" pageScale="1" pageWidth="1169" pageHeight="827" math="0" shadow="0">
      <root>
        <mxCell id="0" />
        <mxCell id="1" parent="0" />
        <mxCell id="RlBV0D62hgFkqquZtGQj-3" style="edgeStyle=orthogonalEdgeStyle;rounded=0;orthogonalLoop=1;jettySize=auto;html=1;fontStyle=1" edge="1" parent="1" source="RlBV0D62hgFkqquZtGQj-1" target="RlBV0D62hgFkqquZtGQj-2">
          <mxGeometry relative="1" as="geometry" />
        </mxCell>
        <mxCell id="RlBV0D62hgFkqquZtGQj-5" value="" style="edgeStyle=orthogonalEdgeStyle;rounded=0;orthogonalLoop=1;jettySize=auto;html=1;fontStyle=1" edge="1" parent="1" source="RlBV0D62hgFkqquZtGQj-1" target="RlBV0D62hgFkqquZtGQj-4">
          <mxGeometry relative="1" as="geometry" />
        </mxCell>
        <mxCell id="RlBV0D62hgFkqquZtGQj-1" value="Container Runtime&lt;br&gt;EG- Docker" style="rounded=0;whiteSpace=wrap;html=1;fontStyle=1" vertex="1" parent="1">
          <mxGeometry x="90" y="340" width="210" height="40" as="geometry" />
        </mxCell>
        <mxCell id="RlBV0D62hgFkqquZtGQj-2" value="Master Machine" style="rounded=0;whiteSpace=wrap;html=1;fontStyle=1" vertex="1" parent="1">
          <mxGeometry x="90" y="380" width="210" height="40" as="geometry" />
        </mxCell>
        <mxCell id="RlBV0D62hgFkqquZtGQj-4" value="2. ETCD" style="rounded=0;whiteSpace=wrap;html=1;fontStyle=1" vertex="1" parent="1">
          <mxGeometry x="90" y="300" width="210" height="40" as="geometry" />
        </mxCell>
        <mxCell id="RlBV0D62hgFkqquZtGQj-6" value="Controll Managers" style="rounded=0;whiteSpace=wrap;html=1;fontStyle=1" vertex="1" parent="1">
          <mxGeometry x="90" y="220" width="210" height="40" as="geometry" />
        </mxCell>
        <mxCell id="RlBV0D62hgFkqquZtGQj-7" value="3. Scheduler" style="rounded=0;whiteSpace=wrap;html=1;fontStyle=1" vertex="1" parent="1">
          <mxGeometry x="90" y="260" width="210" height="40" as="geometry" />
        </mxCell>
        <mxCell id="RlBV0D62hgFkqquZtGQj-8" value="1. API Server" style="rounded=0;whiteSpace=wrap;html=1;fontStyle=1" vertex="1" parent="1">
          <mxGeometry x="90" y="180" width="210" height="40" as="geometry" />
        </mxCell>
        <mxCell id="RlBV0D62hgFkqquZtGQj-9" value="&#xa;&lt;span style=&quot;color: rgb(0, 0, 0); font-family: Helvetica; font-size: 12px; font-style: normal; font-variant-ligatures: normal; font-variant-caps: normal; letter-spacing: normal; orphans: 2; text-align: center; text-indent: 0px; text-transform: none; widows: 2; word-spacing: 0px; -webkit-text-stroke-width: 0px; background-color: rgb(248, 249, 250); text-decoration-thickness: initial; text-decoration-style: initial; text-decoration-color: initial; float: none; display: inline !important;&quot;&gt;COntainer Runtime&lt;/span&gt;&lt;br style=&quot;color: rgb(0, 0, 0); font-family: Helvetica; font-size: 12px; font-style: normal; font-variant-ligatures: normal; font-variant-caps: normal; letter-spacing: normal; orphans: 2; text-align: center; text-indent: 0px; text-transform: none; widows: 2; word-spacing: 0px; -webkit-text-stroke-width: 0px; background-color: rgb(248, 249, 250); text-decoration-thickness: initial; text-decoration-style: initial; text-decoration-color: initial;&quot;&gt;&lt;span style=&quot;color: rgb(0, 0, 0); font-family: Helvetica; font-size: 12px; font-style: normal; font-variant-ligatures: normal; font-variant-caps: normal; letter-spacing: normal; orphans: 2; text-align: center; text-indent: 0px; text-transform: none; widows: 2; word-spacing: 0px; -webkit-text-stroke-width: 0px; background-color: rgb(248, 249, 250); text-decoration-thickness: initial; text-decoration-style: initial; text-decoration-color: initial; float: none; display: inline !important;&quot;&gt;EG- Docker&lt;/span&gt;&#xa;&#xa;" style="rounded=0;whiteSpace=wrap;html=1;fontStyle=1" vertex="1" parent="1">
          <mxGeometry x="470" y="130" width="210" height="40" as="geometry" />
        </mxCell>
        <mxCell id="RlBV0D62hgFkqquZtGQj-10" value="Worker Machine 1" style="rounded=0;whiteSpace=wrap;html=1;fontStyle=1" vertex="1" parent="1">
          <mxGeometry x="470" y="170" width="210" height="40" as="geometry" />
        </mxCell>
        <mxCell id="RlBV0D62hgFkqquZtGQj-11" value="Kubelet" style="rounded=0;whiteSpace=wrap;html=1;fontStyle=1" vertex="1" parent="1">
          <mxGeometry x="470" y="90" width="110" height="40" as="geometry" />
        </mxCell>
        <mxCell id="RlBV0D62hgFkqquZtGQj-12" value="&#xa;&lt;span style=&quot;color: rgb(0, 0, 0); font-family: Helvetica; font-size: 12px; font-style: normal; font-variant-ligatures: normal; font-variant-caps: normal; letter-spacing: normal; orphans: 2; text-align: center; text-indent: 0px; text-transform: none; widows: 2; word-spacing: 0px; -webkit-text-stroke-width: 0px; background-color: rgb(248, 249, 250); text-decoration-thickness: initial; text-decoration-style: initial; text-decoration-color: initial; float: none; display: inline !important;&quot;&gt;COntainer Runtime&lt;/span&gt;&lt;br style=&quot;color: rgb(0, 0, 0); font-family: Helvetica; font-size: 12px; font-style: normal; font-variant-ligatures: normal; font-variant-caps: normal; letter-spacing: normal; orphans: 2; text-align: center; text-indent: 0px; text-transform: none; widows: 2; word-spacing: 0px; -webkit-text-stroke-width: 0px; background-color: rgb(248, 249, 250); text-decoration-thickness: initial; text-decoration-style: initial; text-decoration-color: initial;&quot;&gt;&lt;span style=&quot;color: rgb(0, 0, 0); font-family: Helvetica; font-size: 12px; font-style: normal; font-variant-ligatures: normal; font-variant-caps: normal; letter-spacing: normal; orphans: 2; text-align: center; text-indent: 0px; text-transform: none; widows: 2; word-spacing: 0px; -webkit-text-stroke-width: 0px; background-color: rgb(248, 249, 250); text-decoration-thickness: initial; text-decoration-style: initial; text-decoration-color: initial; float: none; display: inline !important;&quot;&gt;EG- Docker&lt;/span&gt;&#xa;&#xa;" style="rounded=0;whiteSpace=wrap;html=1;fontStyle=1" vertex="1" parent="1">
          <mxGeometry x="460" y="380" width="210" height="40" as="geometry" />
        </mxCell>
        <mxCell id="RlBV0D62hgFkqquZtGQj-13" value="&lt;br&gt;&lt;span style=&quot;color: rgb(0, 0, 0); font-family: Helvetica; font-size: 12px; font-style: normal; font-variant-ligatures: normal; font-variant-caps: normal; letter-spacing: normal; orphans: 2; text-align: center; text-indent: 0px; text-transform: none; widows: 2; word-spacing: 0px; -webkit-text-stroke-width: 0px; background-color: rgb(248, 249, 250); text-decoration-thickness: initial; text-decoration-style: initial; text-decoration-color: initial; float: none; display: inline !important;&quot;&gt;Worker Machine&lt;/span&gt;&lt;br&gt;&amp;nbsp;2" style="rounded=0;whiteSpace=wrap;html=1;fontStyle=1" vertex="1" parent="1">
          <mxGeometry x="460" y="420" width="210" height="40" as="geometry" />
        </mxCell>
        <mxCell id="RlBV0D62hgFkqquZtGQj-14" value="&#xa;&lt;span style=&quot;color: rgb(0, 0, 0); font-family: Helvetica; font-size: 12px; font-style: normal; font-variant-ligatures: normal; font-variant-caps: normal; letter-spacing: normal; orphans: 2; text-align: center; text-indent: 0px; text-transform: none; widows: 2; word-spacing: 0px; -webkit-text-stroke-width: 0px; background-color: rgb(248, 249, 250); text-decoration-thickness: initial; text-decoration-style: initial; text-decoration-color: initial; float: none; display: inline !important;&quot;&gt;Kubelet&lt;/span&gt;&#xa;&#xa;" style="rounded=0;whiteSpace=wrap;html=1;fontStyle=1" vertex="1" parent="1">
          <mxGeometry x="460" y="340" width="110" height="40" as="geometry" />
        </mxCell>
        <mxCell id="RlBV0D62hgFkqquZtGQj-15" value="Kubeproxy&lt;br&gt;n/w proxy" style="rounded=0;whiteSpace=wrap;html=1;fontStyle=1" vertex="1" parent="1">
          <mxGeometry x="580" y="90" width="100" height="40" as="geometry" />
        </mxCell>
        <mxCell id="RlBV0D62hgFkqquZtGQj-16" value="&#xa;&lt;span style=&quot;color: rgb(0, 0, 0); font-family: Helvetica; font-size: 12px; font-style: normal; font-variant-ligatures: normal; font-variant-caps: normal; letter-spacing: normal; orphans: 2; text-align: center; text-indent: 0px; text-transform: none; widows: 2; word-spacing: 0px; -webkit-text-stroke-width: 0px; background-color: rgb(248, 249, 250); text-decoration-thickness: initial; text-decoration-style: initial; text-decoration-color: initial; float: none; display: inline !important;&quot;&gt;Kubeproxy&lt;/span&gt;&lt;br style=&quot;color: rgb(0, 0, 0); font-family: Helvetica; font-size: 12px; font-style: normal; font-variant-ligatures: normal; font-variant-caps: normal; letter-spacing: normal; orphans: 2; text-align: center; text-indent: 0px; text-transform: none; widows: 2; word-spacing: 0px; -webkit-text-stroke-width: 0px; background-color: rgb(248, 249, 250); text-decoration-thickness: initial; text-decoration-style: initial; text-decoration-color: initial;&quot;&gt;&lt;span style=&quot;color: rgb(0, 0, 0); font-family: Helvetica; font-size: 12px; font-style: normal; font-variant-ligatures: normal; font-variant-caps: normal; letter-spacing: normal; orphans: 2; text-align: center; text-indent: 0px; text-transform: none; widows: 2; word-spacing: 0px; -webkit-text-stroke-width: 0px; background-color: rgb(248, 249, 250); text-decoration-thickness: initial; text-decoration-style: initial; text-decoration-color: initial; float: none; display: inline !important;&quot;&gt;n/w proxy&lt;/span&gt;&#xa;&#xa;" style="rounded=0;whiteSpace=wrap;html=1;fontStyle=1" vertex="1" parent="1">
          <mxGeometry x="570" y="340" width="100" height="40" as="geometry" />
        </mxCell>
        <mxCell id="RlBV0D62hgFkqquZtGQj-17" value="&lt;br&gt;CLI&lt;br&gt;Kubectl&lt;br&gt;Cli s/w to interact with master" style="rounded=1;whiteSpace=wrap;html=1;fontStyle=1" vertex="1" parent="1">
          <mxGeometry x="20" y="470" width="120" height="60" as="geometry" />
        </mxCell>
        <mxCell id="RlBV0D62hgFkqquZtGQj-21" value="" style="endArrow=classic;html=1;rounded=0;exitX=0;exitY=0;exitDx=0;exitDy=0;fontStyle=1" edge="1" parent="1" source="RlBV0D62hgFkqquZtGQj-17">
          <mxGeometry width="50" height="50" relative="1" as="geometry">
            <mxPoint x="380" y="240" as="sourcePoint" />
            <mxPoint x="20" y="40" as="targetPoint" />
          </mxGeometry>
        </mxCell>
        <mxCell id="RlBV0D62hgFkqquZtGQj-22" value="" style="endArrow=classic;html=1;rounded=0;fontStyle=1" edge="1" parent="1">
          <mxGeometry width="50" height="50" relative="1" as="geometry">
            <mxPoint x="20" y="40" as="sourcePoint" />
            <mxPoint x="190" y="40" as="targetPoint" />
          </mxGeometry>
        </mxCell>
        <mxCell id="RlBV0D62hgFkqquZtGQj-23" value="" style="endArrow=classic;html=1;rounded=0;entryX=0.429;entryY=0;entryDx=0;entryDy=0;entryPerimeter=0;fontStyle=1" edge="1" parent="1" target="RlBV0D62hgFkqquZtGQj-8">
          <mxGeometry width="50" height="50" relative="1" as="geometry">
            <mxPoint x="180" y="40" as="sourcePoint" />
            <mxPoint x="300" y="40" as="targetPoint" />
          </mxGeometry>
        </mxCell>
        <mxCell id="RlBV0D62hgFkqquZtGQj-24" value="1. Requesting for creating POD" style="text;html=1;align=center;verticalAlign=middle;resizable=0;points=[];autosize=1;strokeColor=none;fillColor=none;fontStyle=1" vertex="1" parent="1">
          <mxGeometry x="10" y="10" width="200" height="30" as="geometry" />
        </mxCell>
        <mxCell id="RlBV0D62hgFkqquZtGQj-25" value="1.kubectl run --name javawebapp --image ravihandson/java-web-app" style="text;html=1;align=center;verticalAlign=middle;resizable=0;points=[];autosize=1;strokeColor=none;fillColor=none;fontStyle=1" vertex="1" parent="1">
          <mxGeometry y="60" width="410" height="30" as="geometry" />
        </mxCell>
        <mxCell id="RlBV0D62hgFkqquZtGQj-26" value="" style="endArrow=classic;html=1;rounded=0;exitX=1;exitY=0.75;exitDx=0;exitDy=0;fontStyle=1" edge="1" parent="1" source="RlBV0D62hgFkqquZtGQj-8">
          <mxGeometry width="50" height="50" relative="1" as="geometry">
            <mxPoint x="380" y="240" as="sourcePoint" />
            <mxPoint x="360" y="260" as="targetPoint" />
          </mxGeometry>
        </mxCell>
        <mxCell id="RlBV0D62hgFkqquZtGQj-27" value="2. Persist the info" style="text;html=1;align=center;verticalAlign=middle;resizable=0;points=[];autosize=1;strokeColor=none;fillColor=none;fontStyle=1" vertex="1" parent="1">
          <mxGeometry x="300" y="260" width="120" height="30" as="geometry" />
        </mxCell>
        <mxCell id="RlBV0D62hgFkqquZtGQj-28" value="" style="endArrow=classic;html=1;rounded=0;entryX=1;entryY=0.5;entryDx=0;entryDy=0;fontStyle=1" edge="1" parent="1" target="RlBV0D62hgFkqquZtGQj-4">
          <mxGeometry width="50" height="50" relative="1" as="geometry">
            <mxPoint x="350" y="290" as="sourcePoint" />
            <mxPoint x="320" y="320" as="targetPoint" />
          </mxGeometry>
        </mxCell>
        <mxCell id="RlBV0D62hgFkqquZtGQj-29" value="" style="endArrow=classic;html=1;rounded=0;exitX=0.001;exitY=0.619;exitDx=0;exitDy=0;exitPerimeter=0;entryX=0;entryY=0.5;entryDx=0;entryDy=0;fontStyle=1" edge="1" parent="1" source="RlBV0D62hgFkqquZtGQj-27" target="RlBV0D62hgFkqquZtGQj-11">
          <mxGeometry width="50" height="50" relative="1" as="geometry">
            <mxPoint x="310" y="220.0000000000001" as="sourcePoint" />
            <mxPoint x="370" y="270" as="targetPoint" />
          </mxGeometry>
        </mxCell>
        <mxCell id="RlBV0D62hgFkqquZtGQj-30" value="" style="endArrow=classic;html=1;rounded=0;entryX=0;entryY=0.5;entryDx=0;entryDy=0;fontStyle=1" edge="1" parent="1" target="RlBV0D62hgFkqquZtGQj-14">
          <mxGeometry width="50" height="50" relative="1" as="geometry">
            <mxPoint x="300" y="280" as="sourcePoint" />
            <mxPoint x="480" y="120" as="targetPoint" />
          </mxGeometry>
        </mxCell>
        <mxCell id="RlBV0D62hgFkqquZtGQj-31" value="3." style="text;html=1;align=center;verticalAlign=middle;resizable=0;points=[];autosize=1;strokeColor=none;fillColor=none;fontStyle=1" vertex="1" parent="1">
          <mxGeometry x="365" y="165" width="30" height="30" as="geometry" />
        </mxCell>
        <mxCell id="RlBV0D62hgFkqquZtGQj-32" value="3. scheduler will schedule &lt;br&gt;unscheduled PODS in &lt;br&gt;nodes with help of kubelet&lt;br&gt;&lt;br&gt;&lt;br&gt;" style="text;html=1;align=center;verticalAlign=middle;resizable=0;points=[];autosize=1;strokeColor=none;fillColor=none;fontStyle=1" vertex="1" parent="1">
          <mxGeometry x="290" y="324" width="170" height="90" as="geometry" />
        </mxCell>
        <mxCell id="RlBV0D62hgFkqquZtGQj-35" value="" style="swimlane;startSize=0;fontStyle=1" vertex="1" parent="1">
          <mxGeometry x="470" y="10" width="125" height="80" as="geometry" />
        </mxCell>
        <mxCell id="RlBV0D62hgFkqquZtGQj-37" value="Container" style="rounded=0;whiteSpace=wrap;html=1;fontStyle=1" vertex="1" parent="RlBV0D62hgFkqquZtGQj-35">
          <mxGeometry y="20" width="80" height="60" as="geometry" />
        </mxCell>
        <mxCell id="RlBV0D62hgFkqquZtGQj-41" value="POD" style="text;html=1;align=center;verticalAlign=middle;resizable=0;points=[];autosize=1;strokeColor=none;fillColor=none;fontStyle=1" vertex="1" parent="1">
          <mxGeometry x="595" y="20" width="50" height="30" as="geometry" />
        </mxCell>
        <mxCell id="RlBV0D62hgFkqquZtGQj-44" value="&lt;span&gt;*API Server process requests from kubectl or kubeUI&lt;br&gt;*ETCD -&amp;gt; Key value Datastore (try to save in DB)&lt;br&gt;* ETCD is DB of K8 &amp;amp; maintains cluster information.&lt;br&gt;* Scheduler talks to ETCD to find if any unscheduled PODS&lt;br&gt;* kubelet is a node Agent , Master machine will interact to create containers &amp;amp; manage health of containers.&lt;br&gt;* kubelet will interact with container runtime to create containers.&lt;br&gt;* controll managers are many 1. Node controll managers 2.Replication controll managers 3. End-point Controll managers.&lt;br&gt;* Node controll managers are responsible for noticing &amp;amp; responding when node go down.&lt;br&gt;* Replication CM will controll Replicas of containers on nodes.&lt;br&gt;* CLI and Master Machine need not be in same machine.&lt;br&gt;* POD = one or more containers&lt;br&gt;* Each worker nodes are controlled by master node using Kubelet Process.&lt;br&gt;* container platform must be running on each worker nodes.&lt;br&gt;* Kubeproxy enables K8&#39;s service abstraction by maintaining network rules on host and performs connection forwarding.&lt;br&gt;* Kubeproxy maintains n/w rules in nodes &amp;amp; also performs load balance.&lt;/span&gt;" style="rounded=0;whiteSpace=wrap;html=1;fontStyle=1" vertex="1" parent="1">
          <mxGeometry x="730" y="35" width="410" height="330" as="geometry" />
        </mxCell>
        <mxCell id="RlBV0D62hgFkqquZtGQj-45" value="Self managed K8&#39;s CLuster:&lt;br&gt;* Kubeadm s/w or minikube to setup K8&#39;s Cluster.&lt;br&gt;&lt;br&gt;Managed K8&#39;s CLuster -&lt;br&gt;* EKS Elastic K8&#39;s Service by AWS&lt;br&gt;* AKS by Azure&lt;br&gt;* GKE by GCP&lt;br&gt;* IKE by IBM" style="text;html=1;align=center;verticalAlign=middle;resizable=0;points=[];autosize=1;strokeColor=none;fillColor=none;fontStyle=1" vertex="1" parent="1">
          <mxGeometry x="780" y="365" width="310" height="130" as="geometry" />
        </mxCell>
        <mxCell id="RlBV0D62hgFkqquZtGQj-47" value="minikube -- &amp;gt; Single Node K8&#39;s Cluster&lt;br&gt;Kubeadm -- &amp;gt; Multi Node K8&#39;s cluster.&lt;br&gt;KOPS -- &amp;gt; Kubernates Operation is a s/w using which we can set up highly available production ready K8&#39;s CLuster in AWS . KOPS will leverage cloud concepts&amp;nbsp;&lt;br&gt;like autoscaling groups and Launch configurations to set up highly available K8&#39;s cluster&lt;br&gt;KOPS will create 2 ASG and 2 Launch Configurations , 1 for master nodes and 1 for worker machines." style="text;html=1;align=center;verticalAlign=middle;resizable=0;points=[];autosize=1;strokeColor=none;fillColor=none;fontStyle=1" vertex="1" parent="1">
          <mxGeometry x="200" y="480" width="940" height="90" as="geometry" />
        </mxCell>
        <mxCell id="RlBV0D62hgFkqquZtGQj-48" value="&lt;b&gt;PORT Requirements -&lt;br&gt;Master - 6443 , 2379-2380 , 10250 , 10251 , 10252&lt;br&gt;Worker - 10250 , 30000 - 32767&lt;/b&gt;" style="text;html=1;align=center;verticalAlign=middle;resizable=0;points=[];autosize=1;strokeColor=none;fillColor=none;" vertex="1" parent="1">
          <mxGeometry x="510" y="560" width="300" height="60" as="geometry" />
        </mxCell>
      </root>
    </mxGraphModel>
  </diagram>
</mxfile>
